<svg width="20" height="21" viewBox="0 0 20 21" fill="none" xmlns="http://www.w3.org/2000/svg">
<g opacity="0.54">
<path d="M11.6667 10.0098C11.6667 10.9311 10.9205 11.678 10 11.678C9.07957 11.678 8.33337 10.9311 8.33337 10.0098C8.33337 9.08838 9.07957 8.34146 10 8.34146C10.9205 8.34146 11.6667 9.08838 11.6667 10.0098Z" stroke="#04091E" stroke-width="1.5"/>
<path d="M11.6667 3.33657C11.6667 4.25794 10.9205 5.00487 10 5.00487C9.07957 5.00487 8.33337 4.25794 8.33337 3.33657C8.33337 2.4152 9.07957 1.66827 10 1.66827C10.9205 1.66827 11.6667 2.4152 11.6667 3.33657Z" stroke="#04091E" stroke-width="1.5"/>
<path d="M11.6667 16.6829C11.6667 17.6043 10.9205 18.3512 10 18.3512C9.07957 18.3512 8.33337 17.6043 8.33337 16.6829C8.33337 15.7616 9.07957 15.0146 10 15.0146C10.9205 15.0146 11.6667 15.7616 11.6667 16.6829Z" stroke="#04091E" stroke-width="1.5"/>
</g>
</svg>
