<svg width="49" height="23" viewBox="0 0 49 23" fill="none" xmlns="http://www.w3.org/2000/svg">
<g filter="url(#filter0_d_3_3030)">
<path d="M4 6.33962L5.72812 4.51369C7.92282 2.19476 11.6991 2.49893 13.4943 5.13924L15.5766 8.20166C16.8797 10.1182 19.3291 10.888 21.4944 10.0616L23.7454 9.20238C25.445 8.55362 27.3629 8.87926 28.7532 10.0526L32.2776 13.0271C34.2676 14.7066 37.2135 14.5776 39.049 12.7305L43.6 8.15094" stroke="#64D26F" stroke-width="2"/>
<path d="M45.2501 7.84905C45.2501 8.7731 44.5069 9.51415 43.6001 9.51415C42.6932 9.51415 41.9501 8.7731 41.9501 7.84905C41.9501 6.92501 42.6932 6.18396 43.6001 6.18396C44.5069 6.18396 45.2501 6.92501 45.2501 7.84905Z" fill="white" stroke="#64D26F" stroke-width="1.5"/>
</g>
<defs>
<filter id="filter0_d_3_3030" x="0.273682" y="1.95038" width="48.7264" height="20.2557" filterUnits="userSpaceOnUse" color-interpolation-filters="sRGB">
<feFlood flood-opacity="0" result="BackgroundImageFix"/>
<feColorMatrix in="SourceAlpha" type="matrix" values="0 0 0 0 0 0 0 0 0 0 0 0 0 0 0 0 0 0 127 0" result="hardAlpha"/>
<feOffset dy="4"/>
<feGaussianBlur stdDeviation="1.5"/>
<feComposite in2="hardAlpha" operator="out"/>
<feColorMatrix type="matrix" values="0 0 0 0 0.568627 0 0 0 0 0.729412 0 0 0 0 0.513726 0 0 0 0.2 0"/>
<feBlend mode="normal" in2="BackgroundImageFix" result="effect1_dropShadow_3_3030"/>
<feBlend mode="normal" in="SourceGraphic" in2="effect1_dropShadow_3_3030" result="shape"/>
</filter>
</defs>
</svg>
